<?xml version="1.0" encoding="iso-8859-1"?>
<!-- Uploaded to: SVG Repo, www.svgrepo.com, Generator: SVG Repo Mixer Tools -->
<svg fill="#F7F3ED" height="800px" width="800px" version="1.1" id="Layer_1" xmlns="http://www.w3.org/2000/svg" xmlns:xlink="http://www.w3.org/1999/xlink" 
	 viewBox="0 0 512 512" xml:space="preserve">
<g>
	<g>
		<path d="M473.043,413.171V267.13h22.261c9.217,0,16.696-7.479,16.696-16.696c0-9.217-7.479-16.696-16.696-16.696h-55.652V50.087
			C439.652,22.468,417.184,0,389.565,0h-267.13C94.816,0,72.348,22.468,72.348,50.087v183.652H16.696
			C7.479,233.739,0,241.218,0,250.435c0,9.217,7.479,16.696,16.696,16.696h22.261v146.04C16.696,418.259,0,438.131,0,461.913v33.391
			C0,504.521,7.479,512,16.696,512h478.609c9.217,0,16.696-7.479,16.696-16.696v-33.391
			C512,438.131,495.304,418.259,473.043,413.171z M105.739,411.826H72.348V267.13c12.083,0,21.308,0,33.391,0V411.826z
			 M172.522,411.826H139.13V267.13c12.083,0,21.308,0,33.391,0V411.826z M239.304,411.826h-33.391V267.13h33.391V411.826z
			 M306.087,411.826h-33.391V267.13h33.391V411.826z M372.87,411.826h-33.391V267.13c12.083,0,21.308,0,33.391,0V411.826z
			 M372.87,233.739h-33.391V100.174h-66.783v133.565h-33.391V100.174h-66.783v133.565H139.13V83.478
			c0-9.217,7.479-16.696,16.696-16.696h200.348c9.217,0,16.696,7.479,16.696,16.696V233.739z M439.652,411.826h-33.391V267.13
			c12.083,0,21.308,0,33.391,0V411.826z"/>
	</g>
</g>
</svg>