<?xml version="1.0" encoding="iso-8859-1"?>
<!-- Uploaded to: SVG Repo, www.svgrepo.com, Generator: SVG Repo Mixer Tools -->
<svg fill="#F7F3ED" height="800px" width="800px" version="1.1" id="Layer_1" xmlns="http://www.w3.org/2000/svg" xmlns:xlink="http://www.w3.org/1999/xlink" 
	 viewBox="0 0 503.326 503.326" xml:space="preserve">
<g>
	<g>
		<g>
			<path d="M242.983,242.985c0-16.132-11.099-29.601-26.034-33.48v-46.67c0-22.797-18.536-41.342-41.333-41.342H67.376
				c-22.797,0-41.342,18.545-41.342,41.342v46.67C11.108,213.384,0,226.852,0,242.985v34.712h242.983V242.985z M70.3,208.273
				c4.035-19.777,21.556-34.712,42.513-34.712h17.356c20.957,0,38.487,14.935,42.522,34.712H70.3z M199.593,208.273h-9.364
				c-4.235-29.384-29.522-52.068-60.06-52.068h-17.356c-30.538,0-55.817,22.684-60.052,52.068H43.39v-45.438
				c0-13.225,10.769-23.986,23.986-23.986h108.24c13.217,0,23.977,10.761,23.977,23.986V208.273z"/>
			<path d="M0.003,364.476c0,9.572,7.784,17.356,17.356,17.356h17.356c9.572,0,17.356-7.784,17.356-17.356V347.12h138.847v17.356
				c0,9.572,7.784,17.356,17.356,17.356h17.356c9.572,0,17.356-7.784,17.356-17.356v-69.424H0.003V364.476z"/>
			<path d="M503.322,242.985c0-16.132-11.099-29.601-26.034-33.48v-46.67c0-22.797-18.536-41.342-41.333-41.342h-108.24
				c-22.797,0-41.342,18.545-41.342,41.342v46.67c-14.926,3.879-26.034,17.347-26.034,33.48v34.712h242.983V242.985z
				 M330.639,208.273c4.035-19.777,21.556-34.712,42.513-34.712h17.356c20.957,0,38.487,14.935,42.522,34.712H330.639z
				 M459.932,208.273h-9.364c-4.235-29.384-29.522-52.068-60.06-52.068h-17.356c-30.538,0-55.817,22.684-60.052,52.068h-9.372
				v-45.438c0-13.225,10.769-23.986,23.986-23.986h108.24c13.217,0,23.977,10.761,23.977,23.986V208.273z"/>
			<path d="M260.342,295.053v69.424c0,9.572,7.784,17.356,17.356,17.356h17.356c9.572,0,17.356-7.784,17.356-17.356V347.12h138.847
				v17.356c0,9.572,7.784,17.356,17.356,17.356h17.356c9.572,0,17.356-7.784,17.356-17.356v-69.424H260.342z"/>
		</g>
	</g>
</g>
</svg>