<svg width="35" height="35" viewBox="0 0 35 35" fill="none" xmlns="http://www.w3.org/2000/svg">
<path fill-rule="evenodd" clip-rule="evenodd" d="M10.9375 0H24.0625C30.1022 0 35 4.89781 35 10.9375V24.0625C35 30.1022 30.1022 35 24.0625 35H10.9375C4.89781 35 0 30.1022 0 24.0625V10.9375C0 4.89781 4.89781 0 10.9375 0ZM24.0625 31.7188C28.2844 31.7188 31.7188 28.2844 31.7188 24.0625V10.9375C31.7188 6.71563 28.2844 3.28125 24.0625 3.28125H10.9375C6.71563 3.28125 3.28125 6.71563 3.28125 10.9375V24.0625C3.28125 28.2844 6.71563 31.7188 10.9375 31.7188H24.0625ZM8.75 17.5C8.75 12.6678 12.6678 8.75 17.5 8.75C22.3322 8.75 26.25 12.6678 26.25 17.5C26.25 22.3322 22.3322 26.25 17.5 26.25C12.6678 26.25 8.75 22.3322 8.75 17.5ZM12.0312 17.5C12.0312 20.5144 14.4856 22.9688 17.5 22.9688C20.5144 22.9688 22.9688 20.5144 22.9688 17.5C22.9688 14.4834 20.5144 12.0312 17.5 12.0312C14.4856 12.0312 12.0312 14.4834 12.0312 17.5ZM28.0723 8.09376C28.0723 8.73769 27.5503 9.2597 26.9063 9.2597C26.2624 9.2597 25.7404 8.73769 25.7404 8.09376C25.7404 7.44983 26.2624 6.92782 26.9063 6.92782C27.5503 6.92782 28.0723 7.44983 28.0723 8.09376Z" fill="#EBE8E3"/>
</svg>
