<svg width="35" height="25" viewBox="0 0 35 25" fill="none" xmlns="http://www.w3.org/2000/svg">
<path fill-rule="evenodd" clip-rule="evenodd" d="M29.435 1.03475C31.5328 1.15287 32.5631 1.4635 33.5125 3.15225C34.5013 4.83881 35 7.74381 35 12.8604V12.8669V12.8779C35 17.9704 34.5013 20.8972 33.5147 22.5663C32.5653 24.2551 31.535 24.5613 29.4372 24.7035C27.3394 24.8238 22.0697 24.896 17.5044 24.896C12.9303 24.896 7.65844 24.8238 5.56281 24.7013C3.46938 24.5591 2.43906 24.2529 1.48094 22.5641C0.503125 20.8951 0 17.9682 0 12.8757V12.8713V12.8647V12.8582C0 7.74381 0.503125 4.83881 1.48094 3.15225C2.43906 1.46131 3.47156 1.15287 5.565 1.03256C7.65844 0.892559 12.9303 0.833496 17.5044 0.833496C22.0697 0.833496 27.3394 0.892559 29.435 1.03475ZM24.0625 12.8647L13.125 6.30225V19.4272L24.0625 12.8647Z" fill="#EBE8E3"/>
</svg>
